<?xml version="1.0" standalone="no"?>
<!DOCTYPE svg PUBLIC "-//W3C//DTD SVG 20010904//EN"
 "http://www.w3.org/TR/2001/REC-SVG-20010904/DTD/svg10.dtd">
<svg version="1.0" xmlns="http://www.w3.org/2000/svg"
 width="128.000000pt" height="128.000000pt" viewBox="0 0 128.000000 128.000000"
 preserveAspectRatio="xMidYMid meet">
<metadata>
Created by potrace 1.14, written by Peter Selinger 2001-2017
</metadata>
<g transform="translate(0.000000,128.000000) scale(0.100000,-0.100000)"
fill="#000000" stroke="none">
<path d="M73 1082 c-17 -2 -25 -13 -32 -40 -16 -61 -23 -107 -25 -170 -1 -32
-5 -63 -9 -68 -11 -19 -5 -474 7 -467 6 3 5 0 -1 -8 -17 -17 -17 -32 -1 -23
10 6 10 4 2 -7 -14 -19 -11 -45 4 -42 7 2 12 -4 12 -12 0 -8 5 -15 11 -15 5 0
7 -4 4 -10 -7 -12 -2 -12 620 -14 248 -1 468 0 491 2 84 8 105 97 99 427 -3
127 -7 253 -10 280 -8 64 -32 106 -73 125 -17 8 -32 19 -32 23 0 4 9 3 19 -3
11 -5 22 -6 25 -2 3 5 0 9 -7 10 -7 1 -34 4 -62 7 -51 7 -1002 12 -1042 7z
m-48 -801 c3 -5 2 -12 -3 -15 -5 -3 -9 1 -9 9 0 17 3 19 12 6z"/>
</g>
</svg>
